<svg xmlns="http://www.w3.org/2000/svg" xmlns:xlink="http://www.w3.org/1999/xlink" width="500" zoomAndPan="magnify" viewBox="0 0 375 374.999991" height="500" preserveAspectRatio="xMidYMid meet" version="1.0"><defs><filter x="0%" y="0%" width="100%" height="100%" id="cf1f95e89d"><feColorMatrix values="0 0 0 0 1 0 0 0 0 1 0 0 0 0 1 0 0 0 1 0" color-interpolation-filters="sRGB"/></filter><clipPath id="0cfbe542fe"><path d="M 3 203 L 126 203 L 126 339 L 3 339 Z M 3 203 " clip-rule="nonzero"/></clipPath><clipPath id="2e224527e5"><path d="M -36.164062 326.863281 L 46.703125 -12.671875 L 382.59375 69.308594 L 299.726562 408.839844 Z M -36.164062 326.863281 " clip-rule="nonzero"/></clipPath><clipPath id="877ab6acd3"><path d="M -36.164062 326.863281 L 46.703125 -12.671875 L 382.59375 69.308594 L 299.726562 408.839844 Z M -36.164062 326.863281 " clip-rule="nonzero"/></clipPath><clipPath id="a588bd17b9"><path d="M 1 201 L 128 201 L 128 341 L 1 341 Z M 1 201 " clip-rule="nonzero"/></clipPath><clipPath id="7640ca6295"><path d="M -36.164062 326.863281 L 46.703125 -12.671875 L 382.59375 69.308594 L 299.726562 408.839844 Z M -36.164062 326.863281 " clip-rule="nonzero"/></clipPath><clipPath id="2f3a0c8dbe"><path d="M -36.164062 326.863281 L 46.703125 -12.671875 L 382.59375 69.308594 L 299.726562 408.839844 Z M -36.164062 326.863281 " clip-rule="nonzero"/></clipPath><clipPath id="f8d1b13ced"><path d="M 225 84 L 372 84 L 372 177 L 225 177 Z M 225 84 " clip-rule="nonzero"/></clipPath><clipPath id="f7530f4b90"><path d="M -36.164062 326.863281 L 46.703125 -12.671875 L 382.59375 69.308594 L 299.726562 408.839844 Z M -36.164062 326.863281 " clip-rule="nonzero"/></clipPath><clipPath id="3cc8497812"><path d="M -36.164062 326.863281 L 46.703125 -12.671875 L 382.59375 69.308594 L 299.726562 408.839844 Z M -36.164062 326.863281 " clip-rule="nonzero"/></clipPath><clipPath id="07cbc85aa5"><path d="M 223 82 L 375 82 L 375 179 L 223 179 Z M 223 82 " clip-rule="nonzero"/></clipPath><clipPath id="ba38854090"><path d="M -36.164062 326.863281 L 46.703125 -12.671875 L 382.59375 69.308594 L 299.726562 408.839844 Z M -36.164062 326.863281 " clip-rule="nonzero"/></clipPath><clipPath id="3eb26b6faf"><path d="M -36.164062 326.863281 L 46.703125 -12.671875 L 382.59375 69.308594 L 299.726562 408.839844 Z M -36.164062 326.863281 " clip-rule="nonzero"/></clipPath><clipPath id="5ba2208bdd"><path d="M 23 14 L 328 14 L 328 364 L 23 364 Z M 23 14 " clip-rule="nonzero"/></clipPath><clipPath id="211a6fca17"><path d="M -36.164062 326.863281 L 46.703125 -12.671875 L 382.59375 69.308594 L 299.726562 408.839844 Z M -36.164062 326.863281 " clip-rule="nonzero"/></clipPath><clipPath id="ed8b6e9d6f"><path d="M -36.164062 326.863281 L 46.703125 -12.671875 L 382.59375 69.308594 L 299.726562 408.839844 Z M -36.164062 326.863281 " clip-rule="nonzero"/></clipPath><clipPath id="9d572f66f2"><path d="M 21 12 L 330 12 L 330 366 L 21 366 Z M 21 12 " clip-rule="nonzero"/></clipPath><clipPath id="5998f5fe1b"><path d="M -36.164062 326.863281 L 46.703125 -12.671875 L 382.59375 69.308594 L 299.726562 408.839844 Z M -36.164062 326.863281 " clip-rule="nonzero"/></clipPath><clipPath id="0051b8f5be"><path d="M -36.164062 326.863281 L 46.703125 -12.671875 L 382.59375 69.308594 L 299.726562 408.839844 Z M -36.164062 326.863281 " clip-rule="nonzero"/></clipPath><clipPath id="1473990b59"><path d="M 53 46 L 290 46 L 290 332 L 53 332 Z M 53 46 " clip-rule="nonzero"/></clipPath><clipPath id="0f10ad82c8"><path d="M -36.164062 326.863281 L 46.703125 -12.671875 L 382.59375 69.308594 L 299.726562 408.839844 Z M -36.164062 326.863281 " clip-rule="nonzero"/></clipPath><clipPath id="2d3e6c79ce"><path d="M -36.164062 326.863281 L 46.703125 -12.671875 L 382.59375 69.308594 L 299.726562 408.839844 Z M -36.164062 326.863281 " clip-rule="nonzero"/></clipPath><clipPath id="3f755dad97"><path d="M 52 45 L 291 45 L 291 333 L 52 333 Z M 52 45 " clip-rule="nonzero"/></clipPath><clipPath id="c4d985698b"><path d="M -36.164062 326.863281 L 46.703125 -12.671875 L 382.59375 69.308594 L 299.726562 408.839844 Z M -36.164062 326.863281 " clip-rule="nonzero"/></clipPath><clipPath id="e4c717b2ab"><path d="M -36.164062 326.863281 L 46.703125 -12.671875 L 382.59375 69.308594 L 299.726562 408.839844 Z M -36.164062 326.863281 " clip-rule="nonzero"/></clipPath><clipPath id="098077783a"><path d="M 126 146 L 220 146 L 220 235 L 126 235 Z M 126 146 " clip-rule="nonzero"/></clipPath><clipPath id="63003cd88e"><path d="M -36.164062 326.863281 L 46.703125 -12.671875 L 382.59375 69.308594 L 299.726562 408.839844 Z M -36.164062 326.863281 " clip-rule="nonzero"/></clipPath><clipPath id="028d6922d3"><path d="M -36.164062 326.863281 L 46.703125 -12.671875 L 382.59375 69.308594 L 299.726562 408.839844 Z M -36.164062 326.863281 " clip-rule="nonzero"/></clipPath><clipPath id="b121f585e6"><path d="M 124 144 L 222 144 L 222 237 L 124 237 Z M 124 144 " clip-rule="nonzero"/></clipPath><clipPath id="65b8fff6f6"><path d="M -36.164062 326.863281 L 46.703125 -12.671875 L 382.59375 69.308594 L 299.726562 408.839844 Z M -36.164062 326.863281 " clip-rule="nonzero"/></clipPath><clipPath id="158a801509"><path d="M -36.164062 326.863281 L 46.703125 -12.671875 L 382.59375 69.308594 L 299.726562 408.839844 Z M -36.164062 326.863281 " clip-rule="nonzero"/></clipPath><clipPath id="44675132ad"><path d="M 144 168 L 194 168 L 194 213 L 144 213 Z M 144 168 " clip-rule="nonzero"/></clipPath><clipPath id="402694b8f0"><path d="M -36.164062 326.863281 L 46.703125 -12.671875 L 382.59375 69.308594 L 299.726562 408.839844 Z M -36.164062 326.863281 " clip-rule="nonzero"/></clipPath><clipPath id="d2ad6e1b67"><path d="M -36.164062 326.863281 L 46.703125 -12.671875 L 382.59375 69.308594 L 299.726562 408.839844 Z M -36.164062 326.863281 " clip-rule="nonzero"/></clipPath><clipPath id="022ff6439e"><path d="M 145 173 L 196 173 L 196 213 L 145 213 Z M 145 173 " clip-rule="nonzero"/></clipPath><clipPath id="751fd1e8dc"><path d="M -36.164062 326.863281 L 46.703125 -12.671875 L 382.59375 69.308594 L 299.726562 408.839844 Z M -36.164062 326.863281 " clip-rule="nonzero"/></clipPath><clipPath id="ea61df5eb3"><path d="M -36.164062 326.863281 L 46.703125 -12.671875 L 382.59375 69.308594 L 299.726562 408.839844 Z M -36.164062 326.863281 " clip-rule="nonzero"/></clipPath><clipPath id="aedd954206"><path d="M 202 248 L 232 248 L 232 280 L 202 280 Z M 202 248 " clip-rule="nonzero"/></clipPath><clipPath id="61124f0374"><path d="M -36.164062 326.863281 L 46.703125 -12.671875 L 382.59375 69.308594 L 299.726562 408.839844 Z M -36.164062 326.863281 " clip-rule="nonzero"/></clipPath><clipPath id="d59bd31a08"><path d="M -36.164062 326.863281 L 46.703125 -12.671875 L 382.59375 69.308594 L 299.726562 408.839844 Z M -36.164062 326.863281 " clip-rule="nonzero"/></clipPath><clipPath id="a0513969e6"><path d="M 200 245 L 235 245 L 235 282 L 200 282 Z M 200 245 " clip-rule="nonzero"/></clipPath><clipPath id="682c639212"><path d="M -36.164062 326.863281 L 46.703125 -12.671875 L 382.59375 69.308594 L 299.726562 408.839844 Z M -36.164062 326.863281 " clip-rule="nonzero"/></clipPath><clipPath id="9fe4ead443"><path d="M -36.164062 326.863281 L 46.703125 -12.671875 L 382.59375 69.308594 L 299.726562 408.839844 Z M -36.164062 326.863281 " clip-rule="nonzero"/></clipPath><clipPath id="9910bf1dac"><path d="M 110 104 L 138 104 L 138 134 L 110 134 Z M 110 104 " clip-rule="nonzero"/></clipPath><clipPath id="35c6c4fe61"><path d="M -36.164062 326.863281 L 46.703125 -12.671875 L 382.59375 69.308594 L 299.726562 408.839844 Z M -36.164062 326.863281 " clip-rule="nonzero"/></clipPath><clipPath id="eb7b8868f4"><path d="M -36.164062 326.863281 L 46.703125 -12.671875 L 382.59375 69.308594 L 299.726562 408.839844 Z M -36.164062 326.863281 " clip-rule="nonzero"/></clipPath><clipPath id="e0996ebeb1"><path d="M 108 102 L 140 102 L 140 136 L 108 136 Z M 108 102 " clip-rule="nonzero"/></clipPath><clipPath id="60a5ca58a4"><path d="M -36.164062 326.863281 L 46.703125 -12.671875 L 382.59375 69.308594 L 299.726562 408.839844 Z M -36.164062 326.863281 " clip-rule="nonzero"/></clipPath><clipPath id="03827facbd"><path d="M -36.164062 326.863281 L 46.703125 -12.671875 L 382.59375 69.308594 L 299.726562 408.839844 Z M -36.164062 326.863281 " clip-rule="nonzero"/></clipPath><clipPath id="063fde6bcb"><path d="M 222 130 L 255 130 L 255 158 L 222 158 Z M 222 130 " clip-rule="nonzero"/></clipPath><clipPath id="c26b08aa97"><path d="M -36.164062 326.863281 L 46.703125 -12.671875 L 382.59375 69.308594 L 299.726562 408.839844 Z M -36.164062 326.863281 " clip-rule="nonzero"/></clipPath><clipPath id="f8313023a0"><path d="M -36.164062 326.863281 L 46.703125 -12.671875 L 382.59375 69.308594 L 299.726562 408.839844 Z M -36.164062 326.863281 " clip-rule="nonzero"/></clipPath><mask id="237aeff37f"><g filter="url(#cf1f95e89d)"><rect x="-37.5" width="450" fill="#000000" y="-37.499999" height="449.999989" fill-opacity="0.129"/></g></mask><clipPath id="8529b49df5"><path d="M 5 1 L 29 1 L 29 26 L 5 26 Z M 5 1 " clip-rule="nonzero"/></clipPath><clipPath id="9971644f68"><path d="M -258.164062 196.863281 L -175.296875 -142.671875 L 160.59375 -60.691406 L 77.726562 278.839844 Z M -258.164062 196.863281 " clip-rule="nonzero"/></clipPath><clipPath id="5f0ae015a9"><path d="M -258.164062 196.863281 L -175.296875 -142.671875 L 160.59375 -60.691406 L 77.726562 278.839844 Z M -258.164062 196.863281 " clip-rule="nonzero"/></clipPath><clipPath id="28f2a8c647"><rect x="0" width="33" y="0" height="28"/></clipPath><clipPath id="fd46085fe1"><path d="M 80 247 L 82 247 L 82 250 L 80 250 Z M 80 247 " clip-rule="nonzero"/></clipPath><clipPath id="0413e425bb"><path d="M -36.164062 326.863281 L 46.703125 -12.671875 L 382.59375 69.308594 L 299.726562 408.839844 Z M -36.164062 326.863281 " clip-rule="nonzero"/></clipPath><clipPath id="988073a59b"><path d="M -36.164062 326.863281 L 46.703125 -12.671875 L 382.59375 69.308594 L 299.726562 408.839844 Z M -36.164062 326.863281 " clip-rule="nonzero"/></clipPath><mask id="be2372ab9a"><g filter="url(#cf1f95e89d)"><rect x="-37.5" width="450" fill="#000000" y="-37.499999" height="449.999989" fill-opacity="0.129"/></g></mask><clipPath id="ef81c39881"><path d="M 0.160156 1 L 1 1 L 1 2 L 0.160156 2 Z M 0.160156 1 " clip-rule="nonzero"/></clipPath><clipPath id="d40941bba3"><path d="M -116.164062 79.863281 L -33.296875 -259.671875 L 302.59375 -177.691406 L 219.726562 161.839844 Z M -116.164062 79.863281 " clip-rule="nonzero"/></clipPath><clipPath id="21798cdb2a"><path d="M -116.164062 79.863281 L -33.296875 -259.671875 L 302.59375 -177.691406 L 219.726562 161.839844 Z M -116.164062 79.863281 " clip-rule="nonzero"/></clipPath><clipPath id="9fc7560acd"><rect x="0" width="2" y="0" height="3"/></clipPath><clipPath id="c78e121472"><path d="M 80 248 L 82 248 L 82 250 L 80 250 Z M 80 248 " clip-rule="nonzero"/></clipPath><clipPath id="cc421c519b"><path d="M -36.164062 326.863281 L 46.703125 -12.671875 L 382.59375 69.308594 L 299.726562 408.839844 Z M -36.164062 326.863281 " clip-rule="nonzero"/></clipPath><clipPath id="47c0d8b14d"><path d="M -36.164062 326.863281 L 46.703125 -12.671875 L 382.59375 69.308594 L 299.726562 408.839844 Z M -36.164062 326.863281 " clip-rule="nonzero"/></clipPath><mask id="0bc5f09066"><g filter="url(#cf1f95e89d)"><rect x="-37.5" width="450" fill="#000000" y="-37.499999" height="449.999989" fill-opacity="0.129"/></g></mask><clipPath id="6cc7686571"><path d="M 0.160156 0.160156 L 1 0.160156 L 1 1.601562 L 0.160156 1.601562 Z M 0.160156 0.160156 " clip-rule="nonzero"/></clipPath><clipPath id="e0a8cdef0c"><path d="M -116.164062 78.863281 L -33.296875 -260.671875 L 302.59375 -178.691406 L 219.726562 160.839844 Z M -116.164062 78.863281 " clip-rule="nonzero"/></clipPath><clipPath id="d444e4580f"><path d="M -116.164062 78.863281 L -33.296875 -260.671875 L 302.59375 -178.691406 L 219.726562 160.839844 Z M -116.164062 78.863281 " clip-rule="nonzero"/></clipPath><clipPath id="f32c74b203"><rect x="0" width="2" y="0" height="2"/></clipPath><clipPath id="3185368f1b"><path d="M 57 206 L 110 206 L 110 332 L 57 332 Z M 57 206 " clip-rule="nonzero"/></clipPath><clipPath id="299581db19"><path d="M -36.164062 326.863281 L 46.703125 -12.671875 L 382.59375 69.308594 L 299.726562 408.839844 Z M -36.164062 326.863281 " clip-rule="nonzero"/></clipPath><clipPath id="bc6fd02463"><path d="M -36.164062 326.863281 L 46.703125 -12.671875 L 382.59375 69.308594 L 299.726562 408.839844 Z M -36.164062 326.863281 " clip-rule="nonzero"/></clipPath><mask id="ab2d30eb27"><g filter="url(#cf1f95e89d)"><rect x="-37.5" width="450" fill="#000000" y="-37.499999" height="449.999989" fill-opacity="0.129"/></g></mask><clipPath id="d5503817ae"><path d="M 9 1 L 49 1 L 49 123 L 9 123 Z M 9 1 " clip-rule="nonzero"/></clipPath><clipPath id="80b63025f8"><path d="M -93.164062 120.863281 L -10.296875 -218.671875 L 325.59375 -136.691406 L 242.726562 202.839844 Z M -93.164062 120.863281 " clip-rule="nonzero"/></clipPath><clipPath id="2f7dc34a89"><path d="M -93.164062 120.863281 L -10.296875 -218.671875 L 325.59375 -136.691406 L 242.726562 202.839844 Z M -93.164062 120.863281 " clip-rule="nonzero"/></clipPath><clipPath id="fdfae3a4a5"><rect x="0" width="53" y="0" height="126"/></clipPath><clipPath id="ca67f4b0ec"><path d="M 297 135 L 351 135 L 351 169 L 297 169 Z M 297 135 " clip-rule="nonzero"/></clipPath><clipPath id="e6f2ef8739"><path d="M -36.164062 326.863281 L 46.703125 -12.671875 L 382.59375 69.308594 L 299.726562 408.839844 Z M -36.164062 326.863281 " clip-rule="nonzero"/></clipPath><clipPath id="d956efe287"><path d="M -36.164062 326.863281 L 46.703125 -12.671875 L 382.59375 69.308594 L 299.726562 408.839844 Z M -36.164062 326.863281 " clip-rule="nonzero"/></clipPath><mask id="1ca8c5d2d7"><g filter="url(#cf1f95e89d)"><rect x="-37.5" width="450" fill="#000000" y="-37.499999" height="449.999989" fill-opacity="0.129"/></g></mask><clipPath id="0eebee81d3"><path d="M 1 10 L 52 10 L 52 27 L 1 27 Z M 1 10 " clip-rule="nonzero"/></clipPath><clipPath id="42eff91db1"><path d="M -333.164062 191.863281 L -250.296875 -147.671875 L 85.59375 -65.691406 L 2.726562 273.839844 Z M -333.164062 191.863281 " clip-rule="nonzero"/></clipPath><clipPath id="96c12d6d41"><path d="M -333.164062 191.863281 L -250.296875 -147.671875 L 85.59375 -65.691406 L 2.726562 273.839844 Z M -333.164062 191.863281 " clip-rule="nonzero"/></clipPath><clipPath id="2e7b6a0ec2"><rect x="0" width="54" y="0" height="34"/></clipPath></defs><g clip-path="url(#0cfbe542fe)"><g clip-path="url(#2e224527e5)"><g clip-path="url(#877ab6acd3)"><path fill="#7ed957" d="M 124.628906 227.222656 C 116.710938 214.328125 99.507812 210.265625 84.800781 205.652344 C 70.09375 201.039062 50.757812 203.050781 38.328125 216.222656 C 29.65625 225.414062 26.160156 238.011719 24.800781 249.71875 C 23.4375 261.421875 23.765625 273.078125 20.816406 284.777344 C 17.921875 296.28125 12.003906 307.25 6.867188 318.3125 C 4.8125 322.734375 2.851562 327.890625 4.738281 331.65625 C 7.671875 337.507812 17.207031 335.105469 23.234375 330.351562 C 26.378906 327.859375 29.132812 324.992188 31.496094 321.746094 C 33.855469 318.503906 35.738281 315 37.144531 311.242188 C 35.023438 318.324219 32.902344 325.40625 30.78125 332.488281 C 30.417969 333.707031 30.050781 334.996094 30.328125 336.117188 C 31.023438 338.933594 34.988281 338.75 37.945312 337.601562 C 49.410156 333.160156 58.605469 320.585938 59.035156 308.773438 C 61.375 321.078125 62.898438 329.476562 68.441406 328.960938 C 80.425781 327.847656 87.675781 297.289062 85.125 283.804688 C 78.125 246.773438 94.59375 234.832031 106.453125 230.0625 C 113.425781 227.257812 130.085938 236.105469 124.628906 227.222656 Z M 124.628906 227.222656 " fill-opacity="1" fill-rule="nonzero"/></g></g></g><g clip-path="url(#a588bd17b9)"><g clip-path="url(#7640ca6295)"><g clip-path="url(#2f3a0c8dbe)"><path fill="#000000" d="M 127.785156 230.8125 C 127.691406 231.199219 127.53125 231.554688 127.304688 231.882812 C 125.710938 234.191406 122.316406 233.546875 117.613281 232.65625 C 114.042969 231.980469 109.605469 231.136719 107.265625 232.078125 C 88.949219 239.449219 82.21875 256.714844 87.265625 283.398438 C 89.265625 293.980469 85.527344 314.925781 77.886719 325.070312 C 75.089844 328.777344 71.980469 330.816406 68.644531 331.125 C 63.203125 331.632812 60.796875 326.800781 58.941406 319.140625 C 55.320312 328.15625 47.738281 336.136719 38.730469 339.632812 C 37.601562 340.066406 33.695312 341.375 30.734375 339.835938 C 30.101562 339.515625 29.5625 339.078125 29.121094 338.519531 C 28.679688 337.957031 28.378906 337.332031 28.214844 336.640625 C 27.789062 334.90625 28.316406 333.144531 28.699219 331.863281 L 30.226562 326.761719 C 28.492188 328.6875 26.613281 330.453125 24.582031 332.058594 C 20.390625 335.363281 13.808594 338.175781 8.539062 337.003906 C 7.296875 336.761719 6.167969 336.253906 5.15625 335.488281 C 4.148438 334.71875 3.359375 333.765625 2.792969 332.628906 C 0.515625 328.089844 2.578125 322.378906 4.894531 317.394531 C 5.929688 315.164062 6.996094 312.9375 8.066406 310.710938 C 12.1875 302.113281 16.445312 293.226562 18.710938 284.246094 C 20.644531 276.714844 21.128906 268.980469 21.632812 261.496094 C 21.898438 257.566406 22.171875 253.496094 22.640625 249.464844 C 24.410156 234.277344 29.023438 222.917969 36.746094 214.730469 C 50.953125 199.679688 71.863281 199.316406 85.453125 203.578125 C 86.929688 204.042969 88.433594 204.5 89.953125 204.960938 C 103.535156 209.101562 118.933594 213.789062 126.484375 226.085938 C 127.003906 226.929688 128.242188 228.945312 127.785156 230.8125 Z M 124.628906 227.222656 Z M 82.742188 254.042969 C 85.761719 241.667969 93.410156 232.964844 105.640625 228.042969 C 109.164062 226.625 114.082031 227.558594 118.421875 228.382812 C 120.003906 228.714844 121.597656 228.960938 123.207031 229.117188 C 123.101562 228.910156 122.960938 228.660156 122.777344 228.363281 C 116.089844 217.472656 102.15625 213.226562 88.683594 209.121094 C 87.15625 208.65625 85.640625 208.195312 84.148438 207.726562 C 70.777344 203.535156 51.914062 204.996094 39.910156 217.714844 C 32.851562 225.195312 28.613281 235.746094 26.960938 249.96875 C 26.503906 253.894531 26.234375 257.910156 25.972656 261.789062 C 25.464844 269.296875 24.945312 277.054688 23.054688 284.796875 C 23.011719 284.96875 22.96875 285.140625 22.925781 285.308594 C 20.558594 294.714844 16.199219 303.800781 11.988281 312.589844 C 10.929688 314.800781 9.867188 317.011719 8.839844 319.226562 C 6.960938 323.269531 5.234375 327.792969 6.679688 330.679688 C 6.957031 331.230469 7.339844 331.6875 7.832031 332.054688 C 8.328125 332.421875 8.878906 332.65625 9.484375 332.757812 C 12.734375 333.480469 17.949219 331.75 21.886719 328.640625 C 24.878906 326.28125 27.496094 323.558594 29.738281 320.476562 C 31.984375 317.398438 33.769531 314.070312 35.101562 310.5 C 35.195312 310.234375 35.339844 309.996094 35.527344 309.785156 C 35.71875 309.574219 35.941406 309.410156 36.195312 309.285156 C 36.449219 309.164062 36.71875 309.089844 37 309.074219 C 37.28125 309.054688 37.558594 309.089844 37.828125 309.179688 C 38.097656 309.269531 38.335938 309.402344 38.554688 309.585938 C 38.769531 309.769531 38.941406 309.988281 39.074219 310.238281 C 39.203125 310.488281 39.28125 310.757812 39.308594 311.039062 C 39.335938 311.320312 39.308594 311.59375 39.226562 311.867188 L 32.867188 333.109375 C 32.625 333.914062 32.292969 335.019531 32.4375 335.59375 C 32.46875 335.777344 32.570312 335.90625 32.742188 335.976562 C 33.460938 336.347656 35.207031 336.332031 37.160156 335.574219 C 47.8125 331.445312 56.460938 319.632812 56.859375 308.695312 C 56.871094 308.429688 56.925781 308.171875 57.03125 307.925781 C 57.136719 307.679688 57.28125 307.460938 57.464844 307.265625 C 57.648438 307.074219 57.863281 306.921875 58.105469 306.808594 C 58.347656 306.691406 58.601562 306.625 58.867188 306.605469 C 59.132812 306.585938 59.394531 306.613281 59.652344 306.6875 C 59.910156 306.765625 60.144531 306.882812 60.355469 307.046875 C 60.566406 307.207031 60.742188 307.402344 60.882812 307.632812 C 61.023438 307.859375 61.121094 308.105469 61.167969 308.367188 L 61.261719 308.855469 C 63.203125 319.058594 64.738281 327.121094 68.242188 326.796875 C 70.308594 326.601562 72.382812 325.140625 74.410156 322.453125 C 81.214844 313.417969 84.816406 293.875 82.988281 284.207031 C 80.773438 272.492188 80.691406 262.4375 82.742188 254.042969 Z M 82.742188 254.042969 " fill-opacity="1" fill-rule="nonzero"/></g></g></g><g clip-path="url(#f8d1b13ced)"><g clip-path="url(#f7530f4b90)"><g clip-path="url(#3cc8497812)"><path fill="#7ed957" d="M 234.390625 174.460938 C 224.480469 163.027344 225.785156 145.398438 225.8125 129.984375 C 225.839844 114.570312 233.574219 96.742188 249.878906 88.851562 C 261.253906 83.347656 274.320312 83.804688 285.890625 86.03125 C 297.464844 88.257812 308.480469 92.078125 320.523438 92.785156 C 332.367188 93.484375 344.605469 91.144531 356.703125 89.574219 C 361.539062 88.945312 367.046875 88.628906 370.066406 91.558594 C 374.765625 96.121094 369.605469 104.492188 363.257812 108.808594 C 359.933594 111.058594 356.371094 112.820312 352.566406 114.097656 C 348.761719 115.371094 344.855469 116.113281 340.847656 116.320312 C 348.238281 116.429688 355.632812 116.539062 363.023438 116.648438 C 364.292969 116.667969 365.636719 116.703125 366.621094 117.304688 C 369.097656 118.816406 367.726562 122.542969 365.746094 125.019531 C 358.054688 134.613281 343.296875 139.601562 331.90625 136.453125 C 342.933594 142.390625 350.484375 146.367188 348.324219 151.5 C 343.65625 162.59375 312.332031 160.308594 300.238281 153.820312 C 267.035156 135.996094 250.691406 148.105469 242.570312 157.980469 C 237.796875 163.785156 241.222656 182.339844 234.390625 174.460938 Z M 234.390625 174.460938 " fill-opacity="1" fill-rule="nonzero"/></g></g></g><g clip-path="url(#07cbc85aa5)"><g clip-path="url(#ba38854090)"><g clip-path="url(#3eb26b6faf)"><path fill="#000000" d="M 369.910156 121.597656 C 369.417969 123.359375 368.59375 124.957031 367.441406 126.378906 C 361.402344 133.917969 351.507812 138.742188 341.816406 139.484375 C 348.5625 143.558594 352.429688 147.3125 350.328125 152.34375 C 349.027344 155.433594 346.148438 157.785156 341.773438 159.335938 C 329.800781 163.570312 308.699219 160.828125 299.210938 155.734375 C 275.28125 142.894531 256.792969 144.113281 244.25 159.363281 C 242.648438 161.308594 242.117188 165.792969 241.683594 169.40625 C 241.121094 174.152344 240.714844 177.589844 238.027344 178.414062 C 235.589844 179.164062 233.527344 176.78125 232.75 175.886719 C 223.296875 164.984375 223.457031 148.890625 223.601562 134.695312 C 223.617188 133.105469 223.632812 131.53125 223.636719 129.980469 C 223.660156 115.738281 230.300781 95.910156 248.929688 86.894531 C 259.066406 81.988281 271.289062 81.007812 286.300781 83.894531 C 290.285156 84.660156 294.246094 85.625 298.074219 86.554688 C 305.359375 88.324219 312.898438 90.15625 320.652344 90.617188 C 329.894531 91.160156 339.652344 89.773438 349.089844 88.429688 C 351.535156 88.082031 353.980469 87.734375 356.421875 87.417969 C 361.875 86.710938 367.941406 86.464844 371.582031 90 C 372.496094 90.882812 373.164062 91.917969 373.59375 93.113281 C 374.023438 94.308594 374.167969 95.535156 374.023438 96.796875 C 373.546875 102.175781 368.894531 107.605469 364.480469 110.605469 C 362.335938 112.058594 360.085938 113.324219 357.730469 114.394531 L 363.054688 114.476562 C 364.398438 114.492188 366.234375 114.519531 367.753906 115.449219 C 368.367188 115.8125 368.871094 116.289062 369.273438 116.878906 C 369.671875 117.46875 369.929688 118.113281 370.042969 118.816406 C 370.191406 119.75 370.148438 120.679688 369.910156 121.597656 Z M 329.792969 135.9375 C 329.816406 135.835938 329.847656 135.738281 329.886719 135.640625 C 329.988281 135.394531 330.125 135.171875 330.308594 134.976562 C 330.488281 134.78125 330.699219 134.621094 330.941406 134.503906 C 331.179688 134.386719 331.433594 134.3125 331.699219 134.289062 C 331.964844 134.261719 332.226562 134.285156 332.484375 134.355469 C 343.039062 137.273438 356.90625 132.574219 364.046875 123.660156 C 365.355469 122.027344 365.898438 120.363281 365.757812 119.566406 C 365.742188 119.382812 365.652344 119.246094 365.488281 119.160156 C 364.984375 118.855469 363.832031 118.835938 362.992188 118.824219 L 340.816406 118.492188 C 340.535156 118.488281 340.261719 118.433594 340 118.320312 C 339.742188 118.210938 339.511719 118.058594 339.308594 117.855469 C 339.109375 117.65625 338.953125 117.425781 338.84375 117.164062 C 338.734375 116.90625 338.675781 116.632812 338.671875 116.351562 C 338.667969 116.066406 338.71875 115.792969 338.820312 115.53125 C 338.925781 115.265625 339.070312 115.03125 339.265625 114.828125 C 339.460938 114.621094 339.6875 114.460938 339.945312 114.339844 C 340.199219 114.222656 340.472656 114.160156 340.753906 114.148438 C 344.558594 113.953125 348.269531 113.25 351.882812 112.039062 C 355.496094 110.828125 358.878906 109.148438 362.035156 107.007812 C 366.179688 104.1875 369.402344 99.746094 369.691406 96.417969 C 369.777344 95.808594 369.71875 95.214844 369.515625 94.632812 C 369.316406 94.050781 368.996094 93.546875 368.550781 93.121094 C 366.238281 90.875 361.402344 91.160156 356.980469 91.730469 C 354.558594 92.046875 352.128906 92.390625 349.699219 92.738281 C 340.050781 94.109375 330.074219 95.53125 320.398438 94.957031 C 312.25 94.476562 304.519531 92.597656 297.046875 90.78125 C 293.265625 89.863281 289.359375 88.914062 285.480469 88.167969 C 271.421875 85.464844 260.085938 86.328125 250.824219 90.808594 C 235.082031 98.429688 228.011719 115.976562 227.984375 129.992188 C 227.984375 131.550781 227.96875 133.136719 227.953125 134.738281 C 227.808594 148.816406 227.667969 163.378906 236.035156 173.035156 C 236.265625 173.300781 236.464844 173.511719 236.628906 173.675781 C 236.910156 172.460938 237.1875 170.390625 237.367188 168.890625 C 237.886719 164.503906 238.480469 159.53125 240.890625 156.597656 C 254.9375 139.519531 275.25 137.9375 301.269531 151.902344 C 309.933594 156.554688 329.660156 159.007812 340.320312 155.234375 C 343.496094 154.109375 345.515625 152.570312 346.320312 150.65625 C 347.683594 147.449219 340.464844 143.53125 331.316406 138.605469 L 330.875 138.367188 C 330.4375 138.132812 330.121094 137.789062 329.917969 137.335938 C 329.71875 136.886719 329.675781 136.417969 329.792969 135.9375 Z M 329.792969 135.9375 " fill-opacity="1" fill-rule="nonzero"/></g></g></g><g clip-path="url(#5ba2208bdd)"><g clip-path="url(#211a6fca17)"><g clip-path="url(#ed8b6e9d6f)"><path fill="#7ed957" d="M 149.261719 14.339844 C 207.222656 106.832031 262.9375 194.253906 327.746094 282.074219 C 322.28125 284.285156 314.171875 288.195312 309.242188 291.417969 C 266.65625 319.25 236.191406 335.160156 200.558594 363.101562 C 135.601562 277.402344 75.753906 187.800781 23.476562 91.660156 C 65.878906 68.632812 111.738281 44.265625 149.261719 14.339844 Z M 149.261719 14.339844 " fill-opacity="1" fill-rule="nonzero"/></g></g></g><g clip-path="url(#9d572f66f2)"><g clip-path="url(#5998f5fe1b)"><g clip-path="url(#0051b8f5be)"><path fill="#000000" d="M 329.859375 282.589844 C 329.851562 282.613281 329.84375 282.640625 329.839844 282.664062 C 329.644531 283.347656 329.21875 283.824219 328.558594 284.089844 C 323.167969 286.273438 315.207031 290.117188 310.433594 293.238281 C 296.214844 302.53125 283.5 310.402344 271.199219 318.011719 C 246.710938 333.171875 225.5625 346.261719 201.902344 364.8125 C 201.671875 364.992188 201.417969 365.121094 201.136719 365.199219 C 200.855469 365.277344 200.570312 365.296875 200.28125 365.261719 C 199.992188 365.222656 199.722656 365.132812 199.46875 364.984375 C 199.21875 364.839844 199.003906 364.648438 198.828125 364.417969 C 128.574219 271.734375 70.589844 182.855469 21.566406 92.699219 C 21.285156 92.171875 21.226562 91.617188 21.394531 91.042969 C 21.5625 90.46875 21.914062 90.035156 22.441406 89.746094 L 28.863281 86.261719 C 69.941406 63.980469 112.421875 40.941406 147.90625 12.640625 C 148.148438 12.449219 148.417969 12.3125 148.71875 12.234375 C 149.019531 12.160156 149.324219 12.144531 149.628906 12.199219 C 149.933594 12.25 150.214844 12.363281 150.472656 12.535156 C 150.730469 12.707031 150.941406 12.925781 151.105469 13.1875 C 207.742188 103.5625 264.003906 192.035156 329.496094 280.785156 C 329.898438 281.328125 330.019531 281.929688 329.859375 282.589844 Z M 200.960938 360.03125 C 224.109375 342.042969 244.914062 329.167969 268.910156 314.3125 C 281.1875 306.714844 293.878906 298.859375 308.054688 289.597656 C 312.339844 286.796875 319.015625 283.460938 324.355469 281.140625 C 259.972656 193.691406 204.484375 106.535156 148.707031 17.554688 C 113.320312 45.402344 71.453125 68.109375 30.9375 90.085938 L 26.429688 92.535156 C 74.816406 181.269531 131.933594 268.8125 200.960938 360.03125 Z M 200.960938 360.03125 " fill-opacity="1" fill-rule="nonzero"/></g></g></g><g clip-path="url(#1473990b59)"><g clip-path="url(#0f10ad82c8)"><g clip-path="url(#2d3e6c79ce)"><path fill="#7ed957" d="M 155 57.929688 C 151.769531 58.914062 147.761719 58.683594 144.332031 57.472656 C 140.628906 56.164062 137.445312 53.832031 134.488281 50.992188 C 133.046875 49.617188 131.703125 48.152344 130.457031 46.59375 C 118.070312 54.59375 105.480469 62.261719 92.679688 69.605469 C 81.042969 76.253906 69.242188 82.625 57.277344 88.714844 C 57.988281 89.902344 58.617188 91.132812 59.167969 92.40625 C 61.085938 96.992188 61.796875 101.757812 61.292969 106.707031 C 61.167969 108.027344 60.902344 109.320312 60.488281 110.582031 C 60.078125 111.847656 59.53125 113.046875 58.851562 114.191406 C 58.175781 115.332031 57.378906 116.386719 56.464844 117.351562 C 55.554688 118.316406 54.546875 119.167969 53.445312 119.910156 C 57.882812 127.804688 62.441406 135.636719 67.109375 143.40625 C 87.453125 177.398438 109.460938 210.386719 131.742188 243.136719 C 150.117188 270.144531 168.425781 297.183594 187.996094 323.300781 C 189.746094 322.136719 191.628906 321.269531 193.648438 320.691406 C 195.664062 320.117188 197.722656 319.863281 199.824219 319.929688 C 206.75 320.175781 213.550781 324.699219 217.6875 331.015625 C 219.167969 330.039062 220.652344 329.066406 222.136719 328.09375 C 240.972656 315.832031 259.84375 303.640625 278.949219 291.800781 C 281.660156 290.121094 284.390625 288.472656 287.113281 286.8125 C 286.78125 286.441406 286.519531 286.023438 286.335938 285.558594 C 284.339844 280.644531 282.847656 275.535156 282.953125 270.417969 C 283 268.027344 283.671875 265.722656 284.34375 263.535156 C 285 261.21875 285.898438 259 287.042969 256.878906 C 287.78125 255.59375 288.582031 254.367188 289.414062 253.171875 C 281.648438 243.378906 274.183594 233.339844 266.949219 223.121094 C 255.394531 206.796875 244.378906 190.085938 233.472656 173.320312 C 222.53125 156.496094 211.582031 139.679688 200.832031 122.734375 C 190.101562 105.820312 179.597656 88.757812 169.585938 71.417969 C 166.445312 65.980469 163.359375 60.507812 160.324219 55.007812 C 160.210938 55.050781 160.089844 55.074219 159.972656 55.113281 C 158.523438 56.417969 156.863281 57.355469 155 57.929688 Z M 155 57.929688 " fill-opacity="1" fill-rule="nonzero"/></g></g></g><g clip-path="url(#3f755dad97)"><g clip-path="url(#c4d985698b)"><g clip-path="url(#e4c717b2ab)"><path fill="#000000" d="M 288.242188 286.976562 L 285.40625 288.699219 C 283.378906 289.933594 281.347656 291.164062 279.332031 292.414062 C 259.988281 304.402344 240.601562 316.9375 222.53125 328.703125 C 221.167969 329.589844 219.804688 330.484375 218.445312 331.382812 L 217.480469 332.019531 L 217.078125 331.414062 C 212.882812 325.007812 206.261719 320.882812 199.796875 320.652344 C 197.777344 320.585938 195.792969 320.828125 193.847656 321.382812 C 191.902344 321.9375 190.089844 322.777344 188.40625 323.898438 L 187.832031 324.289062 L 187.417969 323.734375 C 168.71875 298.789062 150.886719 272.566406 133.636719 247.210938 L 131.144531 243.542969 C 109.792969 212.160156 87.179688 178.355469 66.488281 143.78125 C 61.4375 135.335938 56.960938 127.644531 52.8125 120.265625 L 52.484375 119.6875 L 53.035156 119.3125 C 54.097656 118.601562 55.066406 117.785156 55.941406 116.859375 C 56.820312 115.933594 57.585938 114.921875 58.238281 113.824219 C 58.890625 112.726562 59.414062 111.574219 59.808594 110.359375 C 60.203125 109.144531 60.457031 107.90625 60.574219 106.632812 C 61.070312 101.808594 60.378906 97.164062 58.5 92.691406 C 57.964844 91.449219 57.347656 90.246094 56.65625 89.082031 L 56.261719 88.417969 L 56.949219 88.066406 C 69.628906 81.574219 81.199219 75.332031 92.320312 68.972656 C 104.695312 61.902344 117.394531 54.167969 130.0625 45.984375 L 130.617188 45.628906 L 131.027344 46.144531 C 132.25 47.675781 133.570312 49.117188 134.992188 50.46875 C 138.289062 53.636719 141.332031 55.644531 144.574219 56.789062 C 147.964844 57.988281 151.78125 58.152344 154.789062 57.238281 L 154.789062 57.234375 C 156.550781 56.695312 158.121094 55.808594 159.492188 54.570312 L 159.734375 54.429688 C 159.808594 54.402344 159.882812 54.382812 159.957031 54.363281 L 160.539062 54.15625 L 160.960938 54.660156 C 164.078125 60.304688 167.1875 65.820312 170.210938 71.058594 C 179.234375 86.675781 189.15625 102.972656 201.441406 122.34375 C 211.796875 138.667969 222.515625 155.148438 232.886719 171.085938 L 234.082031 172.925781 C 244.527344 188.984375 255.808594 206.125 267.542969 222.699219 C 275.1875 233.503906 282.527344 243.324219 289.980469 252.71875 L 290.316406 253.140625 L 290.007812 253.582031 C 289.070312 254.933594 288.328125 256.097656 287.671875 257.242188 C 286.558594 259.316406 285.679688 261.484375 285.035156 263.75 C 284.320312 266.085938 283.722656 268.199219 283.675781 270.433594 C 283.589844 274.757812 284.648438 279.476562 287.003906 285.285156 C 287.160156 285.667969 287.375 286.015625 287.652344 286.328125 Z M 217.886719 330.015625 C 219.171875 329.167969 220.457031 328.324219 221.742188 327.484375 C 239.816406 315.71875 259.214844 303.175781 278.570312 291.183594 C 280.589844 289.929688 282.621094 288.695312 284.652344 287.460938 L 286.058594 286.609375 C 285.902344 286.359375 285.773438 286.101562 285.664062 285.832031 C 283.226562 279.832031 282.136719 274.929688 282.226562 270.402344 C 282.277344 267.988281 282.925781 265.675781 283.648438 263.324219 C 284.324219 260.957031 285.246094 258.6875 286.414062 256.519531 C 287.019531 255.46875 287.691406 254.402344 288.511719 253.199219 C 281.15625 243.910156 273.90625 234.203125 266.359375 223.539062 C 254.609375 206.941406 243.320312 189.785156 232.867188 173.714844 L 231.667969 171.875 C 221.300781 155.9375 210.578125 139.453125 200.21875 123.121094 C 187.921875 103.734375 177.988281 87.421875 168.957031 71.78125 C 166.042969 66.738281 163.046875 61.433594 160.046875 56.003906 C 158.613281 57.203125 157 58.078125 155.210938 58.625 C 151.917969 59.625 147.761719 59.453125 144.089844 58.15625 C 140.648438 56.941406 137.4375 54.832031 133.984375 51.515625 C 132.679688 50.269531 131.453125 48.949219 130.300781 47.558594 C 117.792969 55.621094 105.257812 63.25 93.039062 70.234375 C 82.097656 76.484375 70.722656 82.632812 58.289062 89.011719 C 58.859375 90.019531 59.375 91.054688 59.832031 92.121094 C 61.808594 96.820312 62.535156 101.707031 62.015625 106.777344 C 61.894531 108.097656 61.636719 109.390625 61.238281 110.652344 C 60.839844 111.917969 60.3125 113.125 59.652344 114.277344 C 58.996094 115.429688 58.226562 116.496094 57.339844 117.484375 C 56.453125 118.46875 55.472656 119.351562 54.398438 120.125 C 58.449219 127.320312 62.816406 134.820312 67.734375 143.035156 C 88.40625 177.578125 111.003906 211.363281 132.34375 242.726562 L 134.835938 246.394531 C 151.949219 271.554688 169.640625 297.5625 188.167969 322.320312 C 189.917969 321.238281 191.789062 320.429688 193.777344 319.902344 C 195.765625 319.371094 197.789062 319.136719 199.847656 319.203125 C 206.570312 319.441406 213.421875 323.566406 217.886719 330.015625 Z M 217.886719 330.015625 " fill-opacity="1" fill-rule="nonzero"/></g></g></g><g clip-path="url(#098077783a)"><g clip-path="url(#63003cd88e)"><g clip-path="url(#028d6922d3)"><path fill="#7ed957" d="M 133.015625 215.917969 C 137.164062 223.054688 145.140625 229.125 152.625 231.539062 C 175.785156 239.007812 201.363281 229.632812 212.933594 209.4375 C 219.203125 198.492188 221.386719 184.046875 215.941406 171.378906 C 210.605469 158.960938 198.488281 149.964844 186 147.21875 C 173.511719 144.46875 160.855469 147.417969 150.386719 153.492188 C 139.816406 159.621094 130.953125 169.28125 127.648438 181.660156 C 124.347656 194.042969 127.570312 206.554688 133.015625 215.917969 Z M 133.015625 215.917969 " fill-opacity="1" fill-rule="nonzero"/></g></g></g><g clip-path="url(#b121f585e6)"><g clip-path="url(#65b8fff6f6)"><g clip-path="url(#158a801509)"><path fill="#000000" d="M 219.90625 197.820312 C 218.808594 202.292969 217.113281 206.523438 214.820312 210.519531 C 202.671875 231.722656 176.234375 241.4375 151.960938 233.609375 C 143.605469 230.917969 135.433594 224.402344 131.136719 217.011719 C 124.53125 205.652344 122.5 192.628906 125.546875 181.101562 C 128.746094 169.109375 137.179688 158.636719 149.292969 151.609375 C 161.136719 144.742188 174.339844 142.425781 186.46875 145.09375 C 200.25 148.125 212.601562 158.105469 217.941406 170.519531 C 221.554688 178.929688 222.171875 188.539062 219.90625 197.820312 Z M 134.894531 214.824219 C 138.625 221.238281 146.019531 227.125 153.292969 229.472656 C 175.625 236.667969 199.910156 227.789062 211.046875 208.355469 C 217.636719 196.851562 218.722656 183.351562 213.945312 172.238281 C 209.144531 161.070312 197.992188 152.082031 185.53125 149.34375 C 174.472656 146.910156 162.375 149.050781 151.476562 155.371094 C 140.367188 161.816406 132.648438 171.351562 129.75 182.222656 C 129.6875 182.464844 129.625 182.707031 129.566406 182.953125 C 127.082031 193.128906 129.007812 204.699219 134.894531 214.824219 Z M 134.894531 214.824219 " fill-opacity="1" fill-rule="nonzero"/></g></g></g><g clip-path="url(#44675132ad)"><g clip-path="url(#402694b8f0)"><g clip-path="url(#d2ad6e1b67)"><path fill="#000000" d="M 193.351562 195.035156 C 193.289062 195.28125 193.191406 195.511719 193.050781 195.722656 C 192.910156 195.933594 192.738281 196.113281 192.535156 196.265625 C 192.332031 196.417969 192.109375 196.53125 191.867188 196.601562 C 191.625 196.675781 191.378906 196.707031 191.125 196.695312 C 190.871094 196.679688 190.628906 196.625 190.394531 196.527344 C 190.164062 196.429688 189.953125 196.292969 189.765625 196.125 C 189.578125 195.953125 189.429688 195.753906 189.3125 195.53125 C 189.191406 195.304688 189.117188 195.066406 189.082031 194.816406 C 188.347656 189.519531 186.523438 184.628906 183.613281 180.144531 C 181.730469 177.25 179.796875 175.308594 177.699219 174.210938 C 175.300781 172.953125 172.515625 172.867188 170.59375 173.996094 C 167.324219 175.921875 166.804688 180.949219 167.972656 184.699219 C 168.765625 187.238281 170.101562 189.582031 171.515625 192.070312 C 172.589844 193.878906 173.566406 195.742188 174.441406 197.65625 C 176.109375 201.460938 176.285156 204.714844 174.96875 207.335938 C 173.210938 210.847656 169.238281 212.230469 166.105469 212.351562 C 161.042969 212.550781 155.867188 210.199219 151.902344 205.90625 C 148.945312 202.707031 146.710938 198.667969 144.65625 192.8125 C 144.558594 192.542969 144.519531 192.261719 144.535156 191.972656 C 144.550781 191.683594 144.621094 191.410156 144.746094 191.148438 C 144.871094 190.890625 145.039062 190.664062 145.253906 190.46875 C 145.46875 190.277344 145.714844 190.132812 145.984375 190.035156 C 146.257812 189.941406 146.539062 189.902344 146.828125 189.917969 C 147.117188 189.933594 147.390625 190.003906 147.648438 190.128906 C 147.910156 190.253906 148.136719 190.425781 148.328125 190.640625 C 148.523438 190.855469 148.664062 191.101562 148.761719 191.371094 C 150.609375 196.640625 152.566406 200.210938 155.097656 202.957031 C 158.152344 206.261719 162.207031 208.152344 165.9375 208.007812 C 167.738281 207.9375 170.167969 207.207031 171.082031 205.386719 C 171.789062 203.976562 171.578125 201.964844 170.457031 199.402344 C 169.640625 197.625 168.734375 195.898438 167.738281 194.222656 C 166.269531 191.644531 164.75 188.980469 163.820312 185.996094 C 162.109375 180.511719 163.128906 173.339844 168.390625 170.246094 C 171.625 168.34375 175.96875 168.386719 179.71875 170.359375 C 182.492188 171.8125 184.957031 174.238281 187.261719 177.769531 C 190.523438 182.800781 192.566406 188.285156 193.394531 194.226562 C 193.429688 194.5 193.417969 194.769531 193.351562 195.035156 Z M 193.351562 195.035156 " fill-opacity="1" fill-rule="nonzero"/></g></g></g><g clip-path="url(#022ff6439e)"><g clip-path="url(#751fd1e8dc)"><g clip-path="url(#ea61df5eb3)"><path fill="#000000" d="M 195.117188 176.195312 C 194.988281 176.730469 194.695312 177.15625 194.242188 177.46875 C 178.542969 188.3125 163.179688 200.042969 148.589844 212.328125 C 148.371094 212.515625 148.121094 212.652344 147.847656 212.742188 C 147.570312 212.828125 147.289062 212.859375 147.003906 212.835938 C 146.714844 212.8125 146.441406 212.734375 146.1875 212.601562 C 145.929688 212.46875 145.707031 212.289062 145.523438 212.070312 C 145.335938 211.847656 145.199219 211.601562 145.113281 211.324219 C 145.023438 211.050781 144.992188 210.769531 145.019531 210.480469 C 145.042969 210.191406 145.121094 209.921875 145.257812 209.664062 C 145.390625 209.410156 145.566406 209.1875 145.789062 209 C 160.484375 196.625 175.957031 184.8125 191.769531 173.886719 C 192.140625 173.632812 192.550781 173.503906 193.003906 173.503906 C 193.453125 173.503906 193.867188 173.628906 194.238281 173.886719 C 194.609375 174.140625 194.878906 174.480469 195.039062 174.902344 C 195.199219 175.324219 195.226562 175.757812 195.117188 176.195312 Z M 195.117188 176.195312 " fill-opacity="1" fill-rule="nonzero"/></g></g></g><g clip-path="url(#aedd954206)"><g clip-path="url(#61124f0374)"><g clip-path="url(#d59bd31a08)"><path fill="#000000" d="M 204.59375 270.375 C 200.476562 262.949219 202.539062 253.109375 208.964844 249.546875 C 215.390625 245.984375 225.078125 249.3125 229.464844 256.589844 C 233.855469 263.867188 232.195312 273.847656 225.953125 277.714844 C 219.710938 281.582031 209.382812 279.003906 204.59375 270.375 Z M 204.59375 270.375 " fill-opacity="1" fill-rule="nonzero"/></g></g></g><g clip-path="url(#a0513969e6)"><g clip-path="url(#682c639212)"><g clip-path="url(#9fe4ead443)"><path fill="#000000" d="M 233.574219 270.144531 C 232.617188 274.074219 230.40625 277.515625 227.101562 279.5625 C 223.734375 281.644531 219.308594 282.191406 214.949219 281.054688 C 213.65625 280.707031 212.414062 280.234375 211.214844 279.632812 C 210.019531 279.035156 208.894531 278.320312 207.839844 277.496094 C 206.785156 276.667969 205.828125 275.742188 204.960938 274.722656 C 204.09375 273.699219 203.339844 272.605469 202.695312 271.429688 C 201.582031 269.390625 200.851562 267.222656 200.507812 264.925781 C 200.164062 262.628906 200.226562 260.339844 200.695312 258.066406 C 201.6875 253.410156 204.296875 249.644531 207.914062 247.644531 C 215.378906 243.503906 226.320312 247.160156 231.328125 255.464844 C 232.648438 257.671875 233.5 260.042969 233.886719 262.585938 C 234.277344 265.125 234.171875 267.644531 233.574219 270.144531 Z M 205.058594 258.507812 C 205.019531 258.65625 204.988281 258.804688 204.957031 258.957031 C 204.589844 260.722656 204.542969 262.496094 204.804688 264.277344 C 205.070312 266.058594 205.636719 267.738281 206.496094 269.320312 C 207.511719 271.171875 208.847656 272.75 210.503906 274.058594 C 212.164062 275.363281 214.011719 276.292969 216.046875 276.847656 C 219.257812 277.683594 222.449219 277.324219 224.808594 275.863281 C 230.046875 272.617188 231.375 263.96875 227.601562 257.710938 C 223.816406 251.429688 215.433594 248.445312 210.019531 251.449219 C 207.625 252.777344 205.832031 255.332031 205.058594 258.507812 Z M 204.597656 270.375 Z M 204.597656 270.375 " fill-opacity="1" fill-rule="nonzero"/></g></g></g><g clip-path="url(#9910bf1dac)"><g clip-path="url(#35c6c4fe61)"><g clip-path="url(#eb7b8868f4)"><path fill="#000000" d="M 110.757812 120.28125 C 110.742188 125.875 115.132812 131.730469 120.417969 133.164062 C 122.960938 133.796875 125.472656 133.699219 127.953125 132.863281 C 131.125 131.871094 134.011719 129.96875 135.761719 127.085938 C 138.742188 122.175781 137.777344 114.636719 133.585938 109.703125 C 129.394531 104.769531 122.386719 102.855469 117.277344 105.199219 C 112.164062 107.539062 110.777344 113.925781 110.757812 120.28125 Z M 110.757812 120.28125 " fill-opacity="1" fill-rule="nonzero"/></g></g></g><g clip-path="url(#e0996ebeb1)"><g clip-path="url(#60a5ca58a4)"><g clip-path="url(#03827facbd)"><path fill="#000000" d="M 139.203125 124.335938 C 138.875 125.710938 138.347656 127.003906 137.617188 128.214844 C 136.574219 129.84375 135.277344 131.238281 133.722656 132.398438 C 132.171875 133.554688 130.464844 134.402344 128.601562 134.9375 C 125.714844 135.910156 122.796875 136.015625 119.847656 135.261719 C 113.617188 133.574219 108.566406 126.847656 108.582031 120.277344 C 108.609375 111.3125 111.226562 105.574219 116.371094 103.21875 C 122.347656 100.484375 130.460938 102.664062 135.242188 108.296875 C 139.050781 112.78125 140.484375 119.082031 139.203125 124.335938 Z M 112.933594 120.289062 C 112.917969 124.859375 116.683594 129.898438 120.988281 131.066406 C 123.121094 131.59375 125.226562 131.5 127.304688 130.785156 C 128.660156 130.40625 129.90625 129.800781 131.042969 128.96875 C 132.175781 128.140625 133.128906 127.136719 133.902344 125.957031 C 136.386719 121.859375 135.519531 115.339844 131.929688 111.109375 C 128.363281 106.910156 122.453125 105.21875 118.179688 107.175781 C 114.71875 108.761719 112.953125 113.171875 112.933594 120.289062 Z M 112.933594 120.289062 " fill-opacity="1" fill-rule="nonzero"/></g></g></g><g clip-path="url(#063fde6bcb)"><g clip-path="url(#c26b08aa97)"><g clip-path="url(#f8313023a0)"><g mask="url(#237aeff37f)"><g transform="matrix(1, 0, 0, 1, 222, 130)"><g clip-path="url(#28f2a8c647)"><g clip-path="url(#8529b49df5)"><g clip-path="url(#9971644f68)"><g clip-path="url(#5f0ae015a9)"><path fill="#000000" d="M 5.847656 7.621094 C 5.824219 7.8125 5.820312 8.003906 5.828125 8.199219 C 6.558594 12.550781 9.859375 15.957031 12.425781 19.378906 C 12.695312 19.710938 12.96875 20.042969 13.246094 20.371094 C 13.355469 20.511719 13.480469 20.664062 13.609375 20.820312 C 13.660156 20.878906 13.714844 20.941406 13.765625 21.003906 C 14.339844 22.191406 14.910156 23.382812 15.875 24.21875 C 16.585938 24.820312 17.394531 25.039062 18.3125 24.882812 C 18.542969 24.980469 18.78125 25.066406 19.027344 25.136719 C 21.878906 25.917969 24.675781 23.621094 24.929688 20.886719 C 25.054688 20.910156 25.160156 20.925781 25.25 20.9375 C 25.726562 21.019531 26.199219 20.992188 26.660156 20.855469 C 26.894531 20.785156 27.117188 20.683594 27.328125 20.5625 C 27.539062 20.441406 27.734375 20.292969 27.910156 20.128906 C 28.089844 19.960938 28.246094 19.777344 28.382812 19.574219 C 28.519531 19.371094 28.632812 19.15625 28.71875 18.929688 C 28.808594 18.699219 28.867188 18.464844 28.902344 18.222656 C 28.9375 17.980469 28.945312 17.738281 28.925781 17.496094 C 28.902344 17.253906 28.855469 17.015625 28.78125 16.78125 C 28.707031 16.550781 28.609375 16.328125 28.484375 16.117188 C 28.210938 15.683594 27.855469 15.328125 27.421875 15.050781 C 27.386719 15.023438 27.351562 14.996094 27.316406 14.96875 C 26.054688 13.523438 26.25 14.234375 25.03125 13.195312 C 20.03125 10.230469 19.558594 9.832031 15.371094 6.257812 C 14.445312 5.507812 14.074219 5.21875 13.804688 5.019531 C 13.472656 4.582031 13.148438 4.148438 12.832031 3.71875 C 9.75 -0.972656 3.488281 3.078125 5.847656 7.621094 Z M 5.847656 7.621094 " fill-opacity="1" fill-rule="nonzero"/></g></g></g></g></g></g></g></g></g><g clip-path="url(#fd46085fe1)"><g clip-path="url(#0413e425bb)"><g clip-path="url(#988073a59b)"><g mask="url(#be2372ab9a)"><g transform="matrix(1, 0, 0, 1, 80, 247)"><g clip-path="url(#9fc7560acd)"><g clip-path="url(#ef81c39881)"><g clip-path="url(#d40941bba3)"><g clip-path="url(#21798cdb2a)"><path fill="#000000" d="M 0.636719 1.351562 C 0.589844 1.464844 0.550781 1.582031 0.5 1.699219 C 0.589844 1.5 0.671875 1.332031 0.636719 1.351562 Z M 0.636719 1.351562 " fill-opacity="1" fill-rule="nonzero"/></g></g></g></g></g></g></g></g></g><g clip-path="url(#c78e121472)"><g clip-path="url(#cc421c519b)"><g clip-path="url(#47c0d8b14d)"><g mask="url(#0bc5f09066)"><g transform="matrix(1, 0, 0, 1, 80, 248)"><g clip-path="url(#f32c74b203)"><g clip-path="url(#6cc7686571)"><g clip-path="url(#e0a8cdef0c)"><g clip-path="url(#d444e4580f)"><path fill="#000000" d="M 0.367188 1.042969 C 0.414062 0.929688 0.453125 0.8125 0.5 0.699219 C 0.449219 0.8125 0.40625 0.925781 0.367188 1.042969 Z M 0.367188 1.042969 " fill-opacity="1" fill-rule="nonzero"/></g></g></g></g></g></g></g></g></g><g clip-path="url(#3185368f1b)"><g clip-path="url(#299581db19)"><g clip-path="url(#bc6fd02463)"><g mask="url(#ab2d30eb27)"><g transform="matrix(1, 0, 0, 1, 57, 206)"><g clip-path="url(#fdfae3a4a5)"><g clip-path="url(#d5503817ae)"><g clip-path="url(#80b63025f8)"><g clip-path="url(#2f7dc34a89)"><path fill="#000000" d="M 30.984375 2.394531 C 28.347656 3.371094 27.722656 7.207031 29.78125 9.078125 C 30.128906 9.488281 31.082031 10.621094 31.441406 11.03125 C 34.429688 15.023438 35.414062 16.742188 36.234375 18.53125 C 36.21875 18.644531 36.210938 18.757812 36.195312 18.875 C 36.195312 18.765625 36.175781 18.847656 36.148438 19.214844 C 36.039062 19.882812 35.882812 20.542969 35.683594 21.1875 C 35.648438 21.292969 35.621094 21.378906 35.59375 21.460938 C 34.851562 23.191406 33.933594 24.820312 32.839844 26.351562 C 30.746094 28.988281 30.605469 29.6875 28.242188 33.476562 C 26.34375 36.566406 24.710938 39.785156 23.332031 43.140625 C 23.339844 43.113281 23.355469 43.078125 23.367188 43.042969 C 20.875 49.382812 19.550781 55.960938 19.390625 62.769531 C 19.234375 70.46875 20.761719 78.089844 20.761719 85.785156 C 20.621094 94.28125 19.496094 101.554688 16.117188 108.414062 C 13.359375 113.859375 13.105469 112.167969 9.371094 117.492188 C 7.875 120.828125 12.53125 123.835938 15.027344 121.132812 C 22.125 116.671875 27.875 104.085938 28.34375 90.324219 C 28.710938 84.242188 27.921875 78.199219 27.5625 72.140625 C 27.144531 63.289062 27.164062 57.238281 28.660156 50.464844 C 30.554688 42.089844 32.074219 38.097656 35.261719 33.800781 C 36.625 32.332031 38.9375 30.078125 40.707031 27.152344 C 40.867188 27.269531 41.03125 27.375 41.207031 27.464844 C 44.621094 29.519531 49.113281 25.917969 47.855469 22.132812 C 46 16.996094 42.582031 12.726562 39.5 8.289062 C 37.285156 5.761719 35.128906 0.5 30.984375 2.394531 Z M 30.984375 2.394531 " fill-opacity="1" fill-rule="nonzero"/></g></g></g></g></g></g></g></g></g><g clip-path="url(#ca67f4b0ec)"><g clip-path="url(#e6f2ef8739)"><g clip-path="url(#d956efe287)"><g mask="url(#1ca8c5d2d7)"><g transform="matrix(1, 0, 0, 1, 297, 135)"><g clip-path="url(#2e7b6a0ec2)"><g clip-path="url(#0eebee81d3)"><g clip-path="url(#42eff91db1)"><g clip-path="url(#96c12d6d41)"><path fill="#000000" d="M 43.8125 12.335938 C 43.492188 12.652344 43.148438 12.945312 42.804688 13.238281 C 42.46875 13.460938 42.40625 13.519531 42.5 13.488281 C 42.425781 13.523438 42.347656 13.554688 42.273438 13.589844 C 42.191406 13.625 42.171875 13.636719 42.125 13.65625 C 41.871094 13.773438 41.671875 13.859375 41.53125 13.925781 C 34.519531 16.378906 32.394531 16.335938 24.03125 16.578125 C 18.53125 16.792969 14.628906 16.644531 11.742188 16.15625 C 5.894531 15.464844 10.359375 16.019531 6.785156 15.664062 C 5.453125 15.390625 4.011719 14.878906 2.769531 15.726562 C 0.269531 17.132812 0.890625 21.238281 3.714844 21.828125 C 5.367188 22.347656 8.007812 23.691406 9.535156 24.078125 C 13.210938 25 16.929688 25.691406 20.691406 26.15625 C 21.347656 26.238281 22.933594 26.386719 23.597656 26.441406 L 23.601562 26.441406 C 23.652344 26.445312 23.703125 26.449219 23.742188 26.453125 C 23.925781 26.476562 24.109375 26.492188 24.292969 26.496094 C 32.417969 26.476562 41.601562 26.234375 48.164062 20.84375 C 45.800781 22.667969 51.53125 18.839844 51.570312 17.328125 C 53.585938 12.664062 47.289062 8.667969 43.8125 12.335938 Z M 43.8125 12.335938 " fill-opacity="1" fill-rule="nonzero"/></g></g></g></g></g></g></g></g></g></svg>